<?xml version="1.0" standalone="no"?>
<!DOCTYPE svg PUBLIC "-//W3C//DTD SVG 20010904//EN"
 "http://www.w3.org/TR/2001/REC-SVG-20010904/DTD/svg10.dtd">
<svg version="1.0" xmlns="http://www.w3.org/2000/svg"
 width="714.000000pt" height="752.000000pt" viewBox="0 0 714.000000 752.000000"
 preserveAspectRatio="xMidYMid meet">

<g transform="translate(0.000000,752.000000) scale(0.100000,-0.100000)"
fill="#000000" stroke="none">
<path d="M3360 7249 c-69 -5 -145 -13 -170 -18 -25 -6 -65 -13 -90 -17 -71
-10 -264 -61 -392 -105 -102 -34 -195 -73 -328 -138 -149 -73 -342 -198 -490
-316 -107 -86 -303 -278 -371 -362 -172 -216 -231 -309 -349 -538 -148 -291
-232 -585 -270 -950 -22 -211 -3 -577 40 -765 6 -25 20 -85 31 -135 20 -89 87
-298 116 -365 199 -451 425 -758 778 -1056 214 -180 505 -351 749 -439 56 -20
110 -41 121 -45 11 -5 54 -18 95 -30 41 -11 91 -25 110 -31 35 -9 87 -20 185
-38 166 -30 246 -36 475 -36 229 0 309 6 475 36 98 18 150 29 185 38 19 6 69
20 110 31 41 12 84 25 95 30 11 4 61 23 110 40 248 90 542 263 771 452 321
266 598 642 749 1015 20 48 40 97 45 108 15 32 71 207 80 250 5 22 16 72 25
110 20 89 44 237 55 340 11 103 11 398 0 495 -13 119 -30 232 -40 275 -79 343
-151 535 -304 810 -47 84 -172 267 -247 360 -131 164 -360 380 -515 485 -27
19 -51 36 -54 39 -18 20 -220 143 -310 187 -54 27 -201 94 -207 94 -3 0 -19 7
-36 15 -18 8 -72 28 -122 44 -367 120 -687 158 -1105 130z m580 -187 c172 -27
370 -77 515 -129 185 -68 456 -208 607 -315 225 -160 477 -411 616 -615 80
-118 125 -193 203 -343 81 -157 164 -404 206 -615 24 -127 32 -198 39 -380 10
-255 -12 -480 -71 -715 -9 -36 -21 -83 -26 -105 -20 -82 -104 -293 -160 -402
-144 -280 -277 -465 -483 -668 -115 -114 -137 -133 -266 -227 -58 -43 -109
-82 -115 -86 -5 -4 -55 -35 -110 -67 -135 -81 -220 -122 -398 -194 -146 -59
-340 -107 -572 -142 -105 -16 -524 -17 -640 -1 -253 35 -455 88 -642 168 -17
8 -34 14 -38 14 -14 0 -205 97 -286 146 -353 212 -623 467 -840 794 -67 102
-194 343 -224 425 -9 28 -23 64 -30 80 -93 223 -153 563 -154 871 -2 341 50
616 179 949 23 59 128 269 166 331 51 84 98 159 103 164 4 3 19 24 35 48 131
192 412 457 651 614 141 92 223 137 360 197 28 12 59 26 70 31 35 17 159 62
205 75 184 53 267 72 455 100 109 16 533 14 645 -3z"/>
<path d="M2875 6084 c-57 -14 -108 -33 -148 -55 -10 -6 -37 -20 -60 -32 -60
-31 -170 -139 -221 -216 -42 -64 -70 -128 -98 -221 -21 -71 -17 -309 6 -395
11 -38 23 -74 28 -80 4 -5 8 -16 8 -25 0 -25 66 -148 112 -210 60 -79 134
-155 208 -213 71 -57 90 -73 90 -80 0 -3 -31 -30 -69 -61 -194 -156 -299 -296
-368 -491 -26 -76 -28 -89 -28 -245 0 -131 4 -177 18 -222 71 -226 240 -398
463 -474 62 -21 104 -28 199 -31 66 -3 143 0 170 5 90 19 140 33 150 43 5 5
16 9 25 9 19 0 170 96 170 108 0 5 -10 17 -21 28 -12 10 -41 45 -66 76 l-44
57 -52 -33 c-208 -132 -488 -104 -656 66 -188 189 -200 498 -29 735 43 59 147
163 164 163 12 0 60 -51 87 -93 l18 -28 37 30 c20 16 57 47 81 68 l44 39 -19
30 c-26 41 -166 204 -176 204 -21 0 -4 42 30 77 52 52 162 188 162 199 0 14
-144 134 -161 134 -4 0 -25 -25 -48 -55 -23 -30 -47 -55 -53 -55 -37 0 -167
145 -212 237 -94 190 -93 411 2 568 58 96 169 182 281 219 71 23 222 24 294 1
156 -50 257 -128 388 -301 63 -84 212 -304 268 -396 l22 -38 82 67 c45 36 83
70 85 74 8 20 -303 452 -403 558 -121 129 -277 223 -424 255 -89 20 -252 19
-336 0z"/>
<path d="M3995 6085 c-78 -19 -143 -43 -199 -73 -79 -43 -126 -73 -126 -81 0
-4 20 -31 44 -59 25 -29 55 -66 66 -83 20 -27 24 -28 39 -16 76 66 202 107
332 107 150 0 257 -44 361 -151 72 -72 109 -146 132 -260 5 -24 12 -27 59 -33
30 -4 76 -14 102 -22 27 -7 53 -14 58 -14 6 0 7 23 4 61 -21 191 -124 374
-287 502 -53 43 -167 96 -250 117 -87 23 -255 25 -335 5z"/>
<path d="M3275 5453 l-119 -177 34 -25 c19 -14 54 -45 79 -68 25 -23 51 -43
56 -43 6 0 19 15 29 33 11 17 57 90 104 161 96 147 95 125 10 235 -27 34 -54
61 -62 61 -7 0 -67 -80 -131 -177z"/>
<path d="M2634 5304 c7 -62 30 -140 48 -161 6 -7 24 -13 40 -13 40 0 121 -27
188 -63 118 -62 223 -157 453 -410 14 -16 30 -27 34 -25 4 1 39 36 77 76 l70
72 -35 38 c-54 59 -270 274 -314 313 -74 65 -195 137 -300 180 -36 14 -139 37
-204 44 l-64 7 7 -58z"/>
<path d="M4485 5354 c-80 -12 -167 -39 -240 -74 -181 -88 -268 -162 -580 -495
-71 -77 -175 -187 -230 -245 -56 -58 -132 -138 -170 -179 -232 -247 -342 -326
-505 -361 -30 -6 -63 -14 -72 -16 -20 -6 -58 -120 -58 -176 0 -36 1 -38 33
-38 48 0 155 19 212 37 75 24 205 94 276 149 70 53 271 252 448 445 216 234
492 517 562 576 79 66 161 112 246 139 73 24 288 27 343 5 79 -31 128 -58 181
-98 136 -102 207 -220 229 -381 28 -211 -60 -417 -230 -535 -23 -16 -24 -19
-12 -59 12 -39 24 -88 37 -145 3 -13 10 -23 16 -23 6 0 45 23 86 52 141 98
245 241 299 413 27 87 27 353 0 440 -10 33 -22 65 -26 70 -4 6 -11 21 -15 35
-12 39 -92 158 -143 213 -100 105 -254 196 -392 232 -64 17 -235 28 -295 19z"/>
<path d="M2165 5212 c-39 -26 -95 -71 -125 -102 -58 -58 -142 -178 -155 -220
-4 -14 -11 -29 -15 -35 -17 -24 -41 -121 -49 -199 -25 -247 49 -467 213 -631
65 -65 182 -148 201 -142 5 2 15 30 20 63 6 32 16 72 23 87 14 32 16 67 4 67
-17 0 -133 114 -165 163 -60 91 -80 166 -81 297 0 96 4 126 24 180 39 108 101
195 186 261 l52 40 -18 58 c-9 32 -20 79 -24 104 -4 26 -10 49 -14 51 -4 2
-39 -17 -77 -42z"/>
<path d="M4546 5007 c-42 -63 -148 -167 -170 -167 -8 0 -34 25 -58 55 -23 30
-46 55 -50 55 -8 0 -59 -42 -115 -95 l-43 -40 62 -80 c35 -44 82 -100 105
-125 24 -24 43 -47 43 -50 0 -3 -30 -36 -65 -75 -36 -38 -84 -94 -107 -124
l-43 -54 60 -54 c33 -30 71 -62 84 -71 23 -15 25 -15 35 2 28 47 78 106 90
106 8 0 49 -38 93 -84 158 -167 223 -371 179 -571 -20 -94 -64 -173 -136 -245
-175 -175 -444 -197 -660 -54 -116 77 -237 220 -425 507 -49 75 -95 137 -102
137 -6 0 -33 -20 -60 -44 -26 -24 -61 -54 -77 -68 l-29 -24 80 -115 c82 -119
119 -171 140 -198 196 -257 296 -352 441 -423 134 -65 217 -82 377 -75 99 3
133 9 195 32 183 67 315 181 408 352 109 201 99 539 -21 730 -15 24 -27 45
-27 49 0 3 -24 38 -54 77 -57 76 -148 166 -233 232 -29 22 -52 45 -53 51 0 7
44 50 98 97 100 88 145 133 198 202 35 44 84 134 84 151 0 11 -84 35 -172 49
-35 5 -38 4 -72 -48z"/>
<path d="M3759 4443 c-24 -27 -57 -62 -72 -79 l-27 -31 117 -119 c246 -250
381 -348 556 -406 56 -18 223 -41 238 -32 8 5 -7 86 -30 154 -17 51 -21 56
-57 63 -194 42 -268 90 -490 314 -100 101 -183 183 -185 183 -3 0 -25 -21 -50
-47z"/>
<path d="M3830 3923 c-19 -32 -38 -62 -42 -68 -5 -5 -36 -50 -68 -99 l-60 -88
49 -67 c28 -37 59 -75 71 -86 25 -23 23 -25 116 110 109 160 144 213 144 222
0 4 -15 18 -33 31 -17 12 -52 40 -75 62 -24 22 -49 40 -56 40 -6 0 -27 -26
-46 -57z"/>
<path d="M2549 955 c-139 -28 -246 -105 -304 -221 -28 -56 -30 -66 -30 -179 0
-115 1 -122 32 -181 51 -98 118 -157 228 -200 68 -26 247 -27 320 -1 90 32
144 60 147 75 2 8 1 82 -2 165 l-5 151 -70 -2 c-38 0 -74 -1 -78 -2 -4 0 -7
-50 -6 -111 2 -84 -1 -113 -11 -119 -32 -20 -138 -30 -191 -19 -144 31 -230
181 -184 320 25 74 66 123 130 153 90 43 195 32 289 -30 l39 -26 48 48 c27 27
49 54 49 60 1 35 -126 101 -232 119 -95 17 -83 17 -169 0z"/>
<path d="M3450 953 c-93 -18 -208 -93 -259 -169 -38 -58 -71 -164 -71 -230 0
-100 49 -215 120 -283 90 -86 210 -127 345 -118 161 11 281 89 347 225 31 63
33 73 33 177 0 102 -2 115 -31 175 -55 115 -160 197 -285 220 -52 10 -153 11
-199 3z m209 -168 c62 -31 107 -85 126 -151 19 -65 18 -106 -3 -165 -74 -204
-353 -224 -455 -34 -18 32 -22 57 -22 125 1 75 4 90 28 127 14 23 37 51 49 63
66 63 192 79 277 35z"/>
<path d="M1581 908 c-20 -48 -55 -126 -77 -175 -8 -17 -14 -33 -14 -36 0 -5
-28 -68 -90 -202 -24 -53 -39 -86 -70 -160 -4 -11 -22 -50 -39 -86 -17 -36
-31 -71 -31 -78 0 -8 24 -11 86 -9 l87 3 26 72 c15 40 31 77 37 83 7 7 75 9
193 8 l182 -3 36 -82 35 -83 84 0 c63 0 84 3 84 13 0 12 -36 98 -105 252 -14
33 -33 74 -40 90 -7 17 -46 104 -85 195 -39 91 -79 182 -88 203 l-17 37 -88 0
-88 0 -18 -42z m133 -200 c10 -29 24 -66 32 -83 26 -59 54 -136 54 -150 0 -12
-21 -15 -120 -15 -81 0 -120 4 -120 11 0 6 6 25 14 42 8 18 24 55 36 82 12 28
25 59 30 70 5 11 16 37 24 58 8 20 19 37 23 37 5 0 17 -24 27 -52z"/>
<path d="M4173 808 c4 -78 7 -257 7 -395 l0 -253 85 0 85 0 0 115 0 115 94 0
94 0 68 -115 69 -115 98 0 c76 0 97 3 91 13 -4 6 -23 34 -43 61 -60 83 -111
166 -111 179 1 7 20 26 43 43 76 56 110 168 88 287 -15 82 -52 129 -131 169
l-65 33 -239 3 -239 4 6 -144z m408 -9 c21 -7 51 -25 66 -41 24 -25 28 -38 28
-86 0 -109 -50 -142 -215 -142 l-110 0 0 133 c0 74 3 137 7 140 11 11 183 8
224 -4z"/>
<path d="M5300 898 c-38 -88 -48 -110 -76 -178 -14 -36 -42 -99 -61 -140 -19
-41 -46 -101 -59 -132 -13 -32 -35 -82 -49 -112 -14 -30 -25 -57 -25 -60 0 -4
-11 -29 -25 -58 -14 -28 -25 -53 -25 -55 0 -2 39 -2 87 -1 l86 3 35 83 35 82
187 0 187 0 18 -42 c10 -24 27 -62 37 -86 l18 -42 90 0 c50 0 90 1 90 3 0 2
-11 27 -25 55 -14 29 -25 55 -25 58 0 3 -6 20 -14 37 -8 18 -26 58 -40 90 -62
138 -79 174 -96 212 -10 22 -30 69 -44 105 -15 36 -36 84 -47 108 -11 24 -27
61 -35 82 l-16 40 -92 0 -92 0 -24 -52z m134 -180 c10 -24 24 -56 31 -73 26
-59 65 -164 65 -172 0 -9 -227 -9 -237 1 -3 3 -1 16 5 29 6 12 21 47 33 77 12
30 27 69 34 85 6 17 18 45 25 63 7 17 16 32 19 32 4 0 15 -19 25 -42z"/>
</g>
</svg>
